<svg xmlns="http://www.w3.org/2000/svg" width="513.583" height="280.265" viewBox="0 0 513.583 280.265"><g id="Group_260" data-name="Group 260" transform="translate(-7236.875 -4616.182)"><g id="Group_207" data-name="Group 207"><path id="Path_78" data-name="Path 78" d="M7328.336 4838.333c46.781 14.256 31.682 55.968 31.682 55.968H7628.6c-5.481-60.776 101-134.362 54.134-177.847-46.418-43.071-157.975 36.627-227.868 30.049S7228.133 4807.8 7328.336 4838.333z" fill="#089fb3"/></g><g id="Group_208" data-name="Group 208"><path id="Path_79" data-name="Path 79" d="M7386.818 4708.773c-14.211 4.36-80.9 14.967-65.049 37.73 14.831 21.3 149.724-47.449 149.724-62.374S7452.734 4688.548 7386.818 4708.773z" fill="#089fb3"/></g><path id="Rectangle_97" data-name="Rectangle 97" d="M32.411.0H183.9a32.411 32.411.0 0132.411 32.411V252.988a0 0 0 010 0H0a0 0 0 010 0V32.411A32.411 32.411.0 0132.411.0z" transform="translate(7389.217 4641.313)" fill="#0d7a9a"/><g id="Group_210" data-name="Group 210"><path id="Rectangle_98" data-name="Rectangle 98" d="M32.411.0H183.9a32.411 32.411.0 0132.411 32.411V252.988a0 0 0 010 0H0a0 0 0 010 0V32.411A32.411 32.411.0 0132.411.0z" transform="translate(7379.382 4641.313)" fill="#fff"/><g id="Group_209" data-name="Group 209"><path id="Path_80" data-name="Path 80" d="M7567.876 4643.458H7417.031a25.7 25.7.0 00-25.668 25.669v223.029h202.181V4669.127A25.7 25.7.0 007567.876 4643.458z" fill="none"/><path id="Path_81" data-name="Path 81" d="M7400.016 4644.488a25.709 25.709.0 00-18.489 24.639v223.029h5.545V4669.127A29.943 29.943.0 017400.016 4644.488z" fill="none"/><path id="Path_82" data-name="Path 82" d="M7597.835 4669.127v223.029h5.544V4669.127a25.708 25.708.0 00-18.488-24.639A29.942 29.942.0 017597.835 4669.127z" fill="none"/></g></g><g id="Group_211" data-name="Group 211" opacity=".11"><path id="Path_83" data-name="Path 83" d="M7588.656 4650.647 7430.494 4894.3h165.195V4661.744S7593.131 4652.123 7588.656 4650.647z" fill="#0c4c5f"/></g><g id="Group_212" data-name="Group 212"><circle id="Ellipse_23" data-name="Ellipse 23" cx="75.441" cy="75.441" r="75.441" transform="translate(7412.095 4716.454)" fill="#fff"/><path id="Path_84" data-name="Path 84" d="M7487.536 4869.481a77.586 77.586.0 1177.586-77.587A77.676 77.676.0 017487.536 4869.481zm0-150.882a73.3 73.3.0 1073.295 73.295A73.379 73.379.0 007487.536 4718.6z" fill="#0c4c5f"/></g><g id="Group_213" data-name="Group 213"><circle id="Ellipse_24" data-name="Ellipse 24" cx="65.978" cy="65.978" r="65.978" transform="translate(7421.558 4725.917)" fill="#6cc1cd"/><path id="Path_85" data-name="Path 85" d="M7487.536 4860.017a68.123 68.123.0 1168.123-68.123A68.2 68.2.0 017487.536 4860.017zm0-131.955a63.833 63.833.0 1063.832 63.832A63.9 63.9.0 007487.536 4728.062z" fill="#0c4c5f"/></g><g id="Group_217" data-name="Group 217"><g id="Group_214" data-name="Group 214"><path id="Path_86" data-name="Path 86" d="M7381.349 4802.614h-24.168a18.9 18.9.0 01-18.879-18.879v-5.612a14.6 14.6.0 00-14.587-14.588h-9.284v-4.291h9.284a18.9 18.9.0 0118.878 18.879v5.612a14.605 14.605.0 0014.588 14.588h24.168z" fill="#0c4c5f"/></g><path id="Rectangle_99" data-name="Rectangle 99" d="M11.131.0h1.843A11.131 11.131.0 0124.1 11.131v8.427a0 0 0 010 0H0a0 0 0 010 0V11.131A11.131 11.131.0 0111.131.0z" transform="translate(7258.915 4839.547)" fill="#fff"/><g id="Group_216" data-name="Group 216"><line id="Line_79" data-name="Line 79" y2="8.643" transform="translate(7265.884 4859.104)" fill="#fff"/><g id="Group_215" data-name="Group 215"><line id="Line_80" data-name="Line 80" y2="8.643" transform="translate(7276.05 4859.104)" fill="#fff"/><path id="Path_87" data-name="Path 87" d="M7286.771 4759.244a18.9 18.9.0 00-18.879 18.879v59.624a14.216 14.216.0 00-11.122 13.852v9.651h6.968v6.5h4.291v-6.5h5.876v6.5h4.291v-6.5h6.969V4851.6a14.21 14.21.0 00-12.982-14.135v-59.341a14.6 14.6.0 0114.588-14.588h13.418v-4.291zm-5.9 92.355v5.36h-19.813v-5.36a9.906 9.906.0 0119.813.0z" fill="#0c4c5f"/></g></g><path id="Path_88" data-name="Path 88" d="M7249.242 4831.527l-3.034-3.034-3.15 3.15-3.15-3.15-3.034 3.034 3.15 3.15-3.15 3.15 3.034 3.034 3.15-3.15 3.15 3.15 3.034-3.034-3.15-3.15z" fill="#fb8d04"/><path id="Path_89" data-name="Path 89" d="M7307.556 4864.942l-3.033-3.034-3.15 3.15-3.15-3.15-3.034 3.034 3.15 3.15-3.15 3.15 3.034 3.034 3.15-3.15 3.15 3.15 3.033-3.034-3.149-3.15z" fill="#fb8d04"/><path id="Path_90" data-name="Path 90" d="M7290.516 4817.448l-3.034-3.034-3.149 3.15-3.15-3.15-3.034 3.034 3.149 3.15-3.149 3.15 3.034 3.034 3.15-3.15 3.149 3.15 3.034-3.034-3.15-3.15z" fill="#fb8d04"/></g><g id="Group_220" data-name="Group 220"><path id="Rectangle_100" data-name="Rectangle 100" d="M11.131.0h1.843A11.131 11.131.0 0124.1 11.131v8.427a0 0 0 010 0H0a0 0 0 010 0V11.131A11.131 11.131.0 0111.131.0z" transform="translate(7728.417 4664.307) rotate(180)" fill="#fff"/><g id="Group_219" data-name="Group 219"><line id="Line_81" data-name="Line 81" y1="8.643" transform="translate(7721.448 4636.106)" fill="#fff"/><g id="Group_218" data-name="Group 218"><line id="Line_82" data-name="Line 82" y1="8.643" transform="translate(7711.282 4636.106)" fill="#fff"/><path id="Path_91" data-name="Path 91" d="M7724.426 4642.6v-6.5h-4.291v6.5h-5.875v-6.5h-4.291v6.5H7703v9.65a14.208 14.208.0 0012.149 14.033v59.444a14.6 14.6.0 01-14.587 14.588h-13.42v4.29h13.42a18.9 18.9.0 0018.878-18.878v-59.474a14.208 14.208.0 0011.955-14v-9.65zm2.678 9.65a9.906 9.906.0 11-19.813.0V4646.9H7727.1z" fill="#0c4c5f"/></g></g><path id="Path_92" data-name="Path 92" d="M7750.458 4666.027l-3.034-3.034-3.15 3.15-3.15-3.15-3.034 3.034 3.15 3.15-3.15 3.149 3.034 3.034 3.15-3.149 3.15 3.149 3.034-3.034-3.15-3.149z" fill="#fb8d04"/><path id="Path_93" data-name="Path 93" d="M7692.143 4632.612l-3.034-3.034-3.15 3.15-3.149-3.15-3.034 3.034 3.149 3.15-3.149 3.149 3.034 3.034 3.149-3.149 3.15 3.149 3.034-3.034-3.15-3.149z" fill="#fb8d04"/><path id="Path_94" data-name="Path 94" d="M7709.183 4680.106l-3.034-3.034-3.149 3.149-3.15-3.149-3.034 3.034 3.15 3.15-3.15 3.149 3.034 3.034 3.15-3.15 3.149 3.15 3.034-3.034-3.149-3.149z" fill="#fb8d04"/></g><g id="Group_224" data-name="Group 224"><line id="Line_83" data-name="Line 83" x1="9.333" y1="9.333" transform="translate(7651.611 4821.683)" fill="#fff"/><path id="Rectangle_101" data-name="Rectangle 101" d="M0 0H24.1a0 0 0 010 0V8.427A11.131 11.131.0 0112.974 19.557H11.131A11.131 11.131.0 010 8.427V0A0 0 0 010 0z" transform="translate(7681.695 4864.856) rotate(-180)" fill="#fff"/><g id="Group_222" data-name="Group 222"><line id="Line_84" data-name="Line 84" y2="8.643" transform="translate(7674.727 4864.856)" fill="#fff"/><g id="Group_221" data-name="Group 221"><line id="Line_85" data-name="Line 85" y2="8.643" transform="translate(7664.56 4864.856)" fill="#fff"/><path id="Path_95" data-name="Path 95" d="M7684.674 4857.352a14.209 14.209.0 00-11.956-14v-59.474A18.9 18.9.0 007653.839 4765H7640.42v4.291h13.419a14.6 14.6.0 0114.588 14.587v59.445a14.207 14.207.0 00-12.149 14.033V4867h6.969v6.5h4.291V4867h5.876v6.5h4.291V4867h6.969zm-4.291 5.359h-19.815v-5.359a9.907 9.907.0 1119.815.0z" fill="#0c4c5f"/></g></g><path id="Path_96" data-name="Path 96" d="M7703.735 4837.279l-3.034-3.034-3.15 3.15-3.15-3.15-3.034 3.034 3.15 3.15-3.15 3.15 3.034 3.034 3.15-3.15 3.15 3.15 3.034-3.034-3.15-3.15z" fill="#fb8d04"/><path id="Path_97" data-name="Path 97" d="M7645.42 4870.695l-3.034-3.034-3.15 3.15-3.149-3.15-3.034 3.034 3.15 3.15-3.15 3.149 3.034 3.034 3.149-3.149 3.15 3.149 3.034-3.034-3.15-3.149z" fill="#fb8d04"/><g id="Group_223" data-name="Group 223"><line id="Line_86" data-name="Line 86" y1="9.333" x2="9.333" transform="translate(7651.611 4821.683)" fill="#fff"/><path id="Path_98" data-name="Path 98" d="M7662.461 4823.2l-3.034-3.034-3.149 3.15-3.15-3.15-3.034 3.034 3.149 3.15-3.149 3.15 3.034 3.034 3.15-3.15 3.149 3.15 3.034-3.034-3.15-3.15z" fill="#fb8d04"/></g></g><g id="Group_231" data-name="Group 231"><g id="Group_225" data-name="Group 225"><circle id="Ellipse_25" data-name="Ellipse 25" cx="3.733" cy="3.733" r="3.733" transform="translate(7423.029 4661.744)" fill="#fb8d04"/></g><g id="Group_226" data-name="Group 226"><circle id="Ellipse_26" data-name="Ellipse 26" cx="3.733" cy="3.733" r="3.733" transform="translate(7409.325 4661.744)" fill="#fb8d04"/></g><g id="Group_227" data-name="Group 227"><circle id="Ellipse_27" data-name="Ellipse 27" cx="3.733" cy="3.733" r="3.733" transform="translate(7395.843 4661.744)" fill="#fb8d04"/></g><g id="Group_228" data-name="Group 228"><circle id="Ellipse_28" data-name="Ellipse 28" cx="3.733" cy="3.733" r="3.733" transform="translate(7423.029 4673.383)" fill="#fb8d04"/></g><g id="Group_229" data-name="Group 229"><circle id="Ellipse_29" data-name="Ellipse 29" cx="3.733" cy="3.733" r="3.733" transform="translate(7409.325 4673.383)" fill="#fb8d04"/></g><g id="Group_230" data-name="Group 230"><circle id="Ellipse_30" data-name="Ellipse 30" cx="3.733" cy="3.733" r="3.733" transform="translate(7395.843 4673.383)" fill="#fb8d04"/></g></g><g id="Group_232" data-name="Group 232"><line id="Line_87" data-name="Line 87" x2="167.607" transform="translate(7239.25 4894.301)" fill="#fff"/><line id="Line_88" data-name="Line 88" x2="167.607" transform="translate(7568.214 4894.301)" fill="#fff"/></g><line id="Line_89" data-name="Line 89" x2="216.308" transform="translate(7379.382 4697.341)" fill="#fff"/><g id="Group_233" data-name="Group 233"><rect id="Rectangle_102" data-name="Rectangle 102" width="65.342" height="22.385" rx="6.257" transform="translate(7454.865 4660.104)" fill="#6cc1cd"/></g><g id="Group_234" data-name="Group 234"><line id="Line_90" data-name="Line 90" y2="34.332" transform="translate(7444.277 4652.447)" fill="#fff"/><rect id="Rectangle_103" data-name="Rectangle 103" width="4.291" height="34.332" transform="translate(7442.132 4652.447)" fill="#0c4c5f"/></g><g id="Group_235" data-name="Group 235"><line id="Line_91" data-name="Line 91" y2="34.332" transform="translate(7530.868 4652.447)" fill="#fff"/><rect id="Rectangle_104" data-name="Rectangle 104" width="4.291" height="34.332" transform="translate(7528.723 4652.447)" fill="#0c4c5f"/></g><path id="Path_99" data-name="Path 99" d="M7607.67 4892.156V4769.287h22.773V4765H7607.67v-59.465h22.481a14.6 14.6.0 0114.588 14.588v5.612a18.9 18.9.0 0018.879 18.878h9.283v-4.29h-9.283a14.605 14.605.0 01-14.588-14.588v-5.612a18.9 18.9.0 00-18.879-18.879H7607.67v-32.113a29.993 29.993.0 00-29.959-29.959H7407.2a29.992 29.992.0 00-29.959 29.959v223.029H7239.25v4.291h496.572v-4.291zm-14.126.0H7381.527v-192.67h212.017zm0-196.961H7381.527v-26.068a25.69 25.69.0 0125.669-25.669h160.68a25.7 25.7.0 0125.668 25.669zm9.835 196.961h-5.544V4669.127a29.942 29.942.0 00-12.944-24.639 25.708 25.708.0 0118.488 24.639z" fill="#0c4c5f"/><g id="Group_241" data-name="Group 241"><g id="Group_239" data-name="Group 239"><path id="Rectangle_105" data-name="Rectangle 105" d="M0 0H24.1a0 0 0 010 0V8.427A11.131 11.131.0 0112.974 19.557H11.131A11.131 11.131.0 010 8.427V0A0 0 0 010 0z" transform="translate(7302.226 4631.354)" fill="#fff"/><g id="Group_237" data-name="Group 237"><line id="Line_92" data-name="Line 92" y1="8.643" transform="translate(7309.195 4622.71)" fill="#fff"/><g id="Group_236" data-name="Group 236"><line id="Line_93" data-name="Line 93" y1="8.643" transform="translate(7319.362 4622.71)" fill="#fff"/><path id="Path_100" data-name="Path 100" d="M7330.082 4726.923a14.605 14.605.0 01-14.588-14.588v-59.341a14.21 14.21.0 0012.982-14.136v-9.65h-6.969v-6.5h-4.291v6.5h-5.876v-6.5h-4.291v6.5h-6.968v9.65a14.216 14.216.0 0011.123 13.853v59.624a18.9 18.9.0 0018.878 18.878H7343.5v-4.29zm-25.71-88.065V4633.5h19.814v5.359a9.907 9.907.0 11-19.814.0z" fill="#0c4c5f"/></g></g><g id="Group_238" data-name="Group 238"><path id="Path_101" data-name="Path 101" d="M7289.52 4649.6l-3.15 3.15-3.15-3.15-3.034 3.034 3.15 3.15-3.15 3.149 3.034 3.034 3.15-3.149 3.15 3.149 3.034-3.034-3.15-3.149 3.15-3.15z" fill="#fb8d04"/><path id="Path_102" data-name="Path 102" d="M7350.868 4619.216l-3.034-3.034-3.149 3.15-3.15-3.15-3.034 3.034 3.15 3.149-3.15 3.15 3.034 3.034 3.15-3.149 3.149 3.149 3.034-3.034-3.149-3.15z" fill="#fb8d04"/><path id="Path_103" data-name="Path 103" d="M7330.793 4663.676l-3.15 3.15-3.149-3.15-3.034 3.034 3.149 3.149-3.149 3.15 3.034 3.034 3.149-3.149 3.15 3.149 3.034-3.034-3.15-3.15 3.15-3.149z" fill="#fb8d04"/></g></g><g id="Group_240" data-name="Group 240"><rect id="Rectangle_106" data-name="Rectangle 106" width="24.46" height="4.291" transform="translate(7353.479 4726.923)" fill="#0c4c5f"/></g></g><g id="Group_256" data-name="Group 256"><g id="Group_242" data-name="Group 242"><path id="Path_104" data-name="Path 104" d="M7468.649 4854.885l18.887 2.987 19.7-2.987-4.574-55.639-29.392-1.036z" fill="#fff"/></g><g id="Group_255" data-name="Group 255"><g id="Group_243" data-name="Group 243"><path id="Path_105" data-name="Path 105" d="M7518.18 4787.417l-3.275-9.976-11.1 9.976h-32.543l-11.1-9.976-3.275 9.976 8.5 10.715V4817.9l3.519 4.214v32.693l18.612-53.917 19.161 54v-32.772l3-4.214v-19.768h0z" fill="#fb8d04"/></g><g id="Group_244" data-name="Group 244"><path id="Path_106" data-name="Path 106" d="M7468.716 4829.632h37.706v8.392h-37.773S7469.114 4829.288 7468.716 4829.632z" fill="#6cc1cd"/><path id="Path_107" data-name="Path 107" d="M7515.917 4773.725l-12.932 11.625h-30.9l-12.933-11.625-4.661 14.2 8.751 11.034v19.8l3.519 4.213v31.916h4.29V4839.74h33.483v15.145h4.291v-32.008l3-4.213v-19.706l8.752-11.034zm-54.738 7.589 7.081 6.365-4.439 5.1-4.531-5.713zm43.357 54.994h-33.483v-4.959h33.483zm3-19.016-3 4.214v6.411h-33.483v-6.5l-3.519-4.214v-22.151l4.708-5.408h30.588l4.707 5.408zm3.713-24.512-4.439-5.1 7.081-6.365 1.89 5.753z" fill="#0c4c5f"/></g><g id="Group_249" data-name="Group 249"><g id="Group_245" data-name="Group 245"><path id="Path_108" data-name="Path 108" d="M7480.658 4819.6l1.937-2.421A6.676 6.676.0 007480.658 4819.6z" fill="#0c4c5f"/></g><g id="Group_246" data-name="Group 246"><path id="Path_109" data-name="Path 109" d="M7494.414 4819.6z" fill="#6cc1cd"/></g><g id="Group_247" data-name="Group 247"><path id="Path_110" data-name="Path 110" d="M7492.836 4820.277l1.577-.676-1.583.664z" fill="#0c4c5f"/></g><g id="Group_248" data-name="Group 248"><path id="Path_111" data-name="Path 111" d="M7492.478 4817.18l1.936 2.421h0A6.693 6.693.0 007492.478 4817.18z" fill="#0c4c5f"/></g></g><g id="Group_252" data-name="Group 252"><g id="Group_250" data-name="Group 250"><circle id="Ellipse_31" data-name="Ellipse 31" cx="2.741" cy="2.741" r="2.741" transform="translate(7493.256 4802.613)" fill="#0c4c5f"/></g><g id="Group_251" data-name="Group 251"><circle id="Ellipse_32" data-name="Ellipse 32" cx="2.741" cy="2.741" r="2.741" transform="translate(7476.334 4802.613)" fill="#0c4c5f"/></g></g><g id="Group_253" data-name="Group 253"><path id="Path_112" data-name="Path 112" d="M7485.21 4822.168a4.415 4.415.0 005.1.0" fill="#6cc1cd"/><path id="Path_113" data-name="Path 113" d="M7487.84 4824.688a6.673 6.673.0 01-3.531-1.059l1.8-2.921a2.7 2.7.0 003.133.113l2.152 2.674A5.757 5.757.0 017487.84 4824.688z" fill="#0c4c5f"/></g><g id="Group_254" data-name="Group 254"><line id="Line_94" data-name="Line 94" x2="6.658" transform="translate(7484.207 4810.506)" fill="#6cc1cd"/><path id="Path_114" data-name="Path 114" d="M7490.307 4814.468a6.908 6.908.0 00-.948-.072h-.107v-2.174h1.613v-3.433h-6.658v3.433h1.612v2.174h-.106a6.921 6.921.0 00-.949.072 7.54 7.54.0 00-5.689 4.469l3.16 1.34a3.942 3.942.0 013.584-2.433 4.764 4.764.0 011.241.191l.476.137.475-.137a4.767 4.767.0 011.241-.191 3.93 3.93.0 013.578 2.42l1.583-.663h0l1.582-.664A7.539 7.539.0 007490.307 4814.468zm-9.649 5.133" fill="#0c4c5f"/></g></g></g><g id="Group_257" data-name="Group 257"><line id="Line_95" data-name="Line 95" x1="12.833" transform="translate(7556.751 4671.297)" fill="#fff"/><path id="Path_115" data-name="Path 115" d="M7556.751 4656.319a14.978 14.978.0 1014.978 14.977A14.995 14.995.0 007556.751 4656.319zm0 25.665a10.687 10.687.0 1110.471-12.833h-10.471v4.291h10.471A10.706 10.706.0 017556.751 4681.984z" fill="#0c4c5f"/></g><g id="Group_258" data-name="Group 258" opacity=".19"><path id="Path_116" data-name="Path 116" d="M7530.868 4742.143 7457.91 4851.4l-10.7-6.1-12.8-14.282L7423.029 4811l-2.716-21.735 5.162-25.81 10.637-12.895 15.717-16.176L7475.59 4727h28.217z" fill="#fff"/></g><g id="Group_259" data-name="Group 259"><path id="Path_117" data-name="Path 117" d="M7487.536 4860.017a68.123 68.123.0 1168.123-68.123A68.2 68.2.0 017487.536 4860.017zm0-131.955a63.833 63.833.0 1063.832 63.832A63.9 63.9.0 007487.536 4728.062z" fill="#0c4c5f"/></g></g></svg>